<svg xmlns="http://www.w3.org/2000/svg" viewBox="0 0 800 400">
  <g stroke="#94a3b8" stroke-width="0.5" opacity="0.4">
    <line x1="0" y1="0" x2="0" y2="400"/><line x1="80" y1="0" x2="80" y2="400"/>
    <line x1="160" y1="0" x2="160" y2="400"/><line x1="240" y1="0" x2="240" y2="400"/>
    <line x1="320" y1="0" x2="320" y2="400"/><line x1="400" y1="0" x2="400" y2="400"/>
    <line x1="480" y1="0" x2="480" y2="400"/><line x1="560" y1="0" x2="560" y2="400"/>
    <line x1="640" y1="0" x2="640" y2="400"/><line x1="720" y1="0" x2="720" y2="400"/>
    <line x1="800" y1="0" x2="800" y2="400"/>
    <line x1="0" y1="0" x2="800" y2="0"/><line x1="0" y1="80" x2="800" y2="80"/>
    <line x1="0" y1="160" x2="800" y2="160"/><line x1="0" y1="240" x2="800" y2="240"/>
    <line x1="0" y1="320" x2="800" y2="320"/><line x1="0" y1="400" x2="800" y2="400"/>
  </g>
  <rect x="160" y="80" width="160" height="80" fill="none" stroke="#94a3b8" stroke-width="1" opacity="0.6"/>
  <rect x="480" y="160" width="160" height="80" fill="none" stroke="#94a3b8" stroke-width="1" opacity="0.6"/>
</svg>
